<mxfile host="app.diagrams.net" modified="2022-09-20T11:54:17.202Z" agent="5.0 (Windows NT 10.0; Win64; x64) AppleWebKit/537.36 (KHTML, like Gecko) Chrome/105.0.0.0 Safari/537.36" etag="fQsTaBn_ARkcTopyfQRQ" version="20.3.3" type="github">
  <diagram id="1XjNQObzMwLtmU3Wl38Y" name="Página-1">
    <mxGraphModel dx="953" dy="532" grid="1" gridSize="10" guides="1" tooltips="1" connect="1" arrows="1" fold="1" page="1" pageScale="1" pageWidth="827" pageHeight="1169" math="0" shadow="0">
      <root>
        <mxCell id="0" />
        <mxCell id="1" parent="0" />
        <mxCell id="wKU1zmOduOE47sI-MYQm-1" value="" style="rounded=1;whiteSpace=wrap;html=1;" vertex="1" parent="1">
          <mxGeometry x="354" y="20" width="120" height="60" as="geometry" />
        </mxCell>
        <mxCell id="wKU1zmOduOE47sI-MYQm-3" value="" style="rounded=1;whiteSpace=wrap;html=1;" vertex="1" parent="1">
          <mxGeometry x="354" y="20" width="120" height="60" as="geometry" />
        </mxCell>
        <mxCell id="wKU1zmOduOE47sI-MYQm-5" value="" style="rounded=1;whiteSpace=wrap;html=1;" vertex="1" parent="1">
          <mxGeometry x="354" y="20" width="120" height="60" as="geometry" />
        </mxCell>
        <mxCell id="wKU1zmOduOE47sI-MYQm-7" value="INICIO" style="rounded=1;whiteSpace=wrap;html=1;" vertex="1" parent="1">
          <mxGeometry x="354" y="20" width="120" height="60" as="geometry" />
        </mxCell>
        <mxCell id="wKU1zmOduOE47sI-MYQm-8" value="" style="endArrow=classic;html=1;rounded=0;exitX=0.5;exitY=1;exitDx=0;exitDy=0;" edge="1" source="wKU1zmOduOE47sI-MYQm-7" parent="1">
          <mxGeometry width="50" height="50" relative="1" as="geometry">
            <mxPoint x="624" y="260" as="sourcePoint" />
            <mxPoint x="414" y="110" as="targetPoint" />
          </mxGeometry>
        </mxCell>
        <mxCell id="wKU1zmOduOE47sI-MYQm-11" style="edgeStyle=orthogonalEdgeStyle;rounded=0;orthogonalLoop=1;jettySize=auto;html=1;entryX=0.5;entryY=0;entryDx=0;entryDy=0;" edge="1" parent="1" source="wKU1zmOduOE47sI-MYQm-9" target="wKU1zmOduOE47sI-MYQm-10">
          <mxGeometry relative="1" as="geometry" />
        </mxCell>
        <mxCell id="wKU1zmOduOE47sI-MYQm-9" value="Escribir (&quot;Introduca dinero)&quot;" style="shape=parallelogram;perimeter=parallelogramPerimeter;whiteSpace=wrap;html=1;fixedSize=1;" vertex="1" parent="1">
          <mxGeometry x="290" y="110" width="250" height="40" as="geometry" />
        </mxCell>
        <mxCell id="wKU1zmOduOE47sI-MYQm-10" value="Leer (dinero_metido)" style="shape=parallelogram;perimeter=parallelogramPerimeter;whiteSpace=wrap;html=1;fixedSize=1;" vertex="1" parent="1">
          <mxGeometry x="325" y="190" width="180" height="30" as="geometry" />
        </mxCell>
        <mxCell id="wKU1zmOduOE47sI-MYQm-18" value="" style="endArrow=classic;html=1;rounded=0;" edge="1" parent="1">
          <mxGeometry width="50" height="50" relative="1" as="geometry">
            <mxPoint x="414.5" y="220" as="sourcePoint" />
            <mxPoint x="414.5" y="270" as="targetPoint" />
            <Array as="points">
              <mxPoint x="414.5" y="270" />
            </Array>
          </mxGeometry>
        </mxCell>
        <mxCell id="wKU1zmOduOE47sI-MYQm-47" style="edgeStyle=orthogonalEdgeStyle;rounded=0;orthogonalLoop=1;jettySize=auto;html=1;fontSize=11;entryX=0.5;entryY=0;entryDx=0;entryDy=0;" edge="1" parent="1" source="wKU1zmOduOE47sI-MYQm-44" target="wKU1zmOduOE47sI-MYQm-45">
          <mxGeometry relative="1" as="geometry">
            <mxPoint x="210" y="295" as="targetPoint" />
          </mxGeometry>
        </mxCell>
        <mxCell id="wKU1zmOduOE47sI-MYQm-48" style="edgeStyle=orthogonalEdgeStyle;rounded=0;orthogonalLoop=1;jettySize=auto;html=1;entryX=0.5;entryY=0;entryDx=0;entryDy=0;fontSize=11;" edge="1" parent="1" source="wKU1zmOduOE47sI-MYQm-44" target="wKU1zmOduOE47sI-MYQm-46">
          <mxGeometry relative="1" as="geometry" />
        </mxCell>
        <mxCell id="wKU1zmOduOE47sI-MYQm-44" value="Si dinero_metido &amp;gt;= 2" style="rhombus;whiteSpace=wrap;html=1;fontSize=11;" vertex="1" parent="1">
          <mxGeometry x="340" y="270" width="150" height="50" as="geometry" />
        </mxCell>
        <mxCell id="wKU1zmOduOE47sI-MYQm-59" style="edgeStyle=orthogonalEdgeStyle;rounded=0;orthogonalLoop=1;jettySize=auto;html=1;exitX=0.5;exitY=1;exitDx=0;exitDy=0;entryX=0.5;entryY=0;entryDx=0;entryDy=0;fontSize=12;" edge="1" parent="1" source="wKU1zmOduOE47sI-MYQm-45" target="wKU1zmOduOE47sI-MYQm-58">
          <mxGeometry relative="1" as="geometry" />
        </mxCell>
        <mxCell id="wKU1zmOduOE47sI-MYQm-45" value="&lt;font size=&quot;1&quot;&gt;Escribir (&quot;La cantidad de dinero no es suficiente, introduce más dinero&quot;)&lt;/font&gt;" style="shape=parallelogram;perimeter=parallelogramPerimeter;whiteSpace=wrap;html=1;fixedSize=1;fontSize=11;" vertex="1" parent="1">
          <mxGeometry x="30" y="320" width="250" height="30" as="geometry" />
        </mxCell>
        <mxCell id="wKU1zmOduOE47sI-MYQm-46" value="Entregar Botella" style="shape=parallelogram;perimeter=parallelogramPerimeter;whiteSpace=wrap;html=1;fixedSize=1;fontSize=11;" vertex="1" parent="1">
          <mxGeometry x="550" y="320" width="160" height="30" as="geometry" />
        </mxCell>
        <mxCell id="wKU1zmOduOE47sI-MYQm-49" style="edgeStyle=orthogonalEdgeStyle;rounded=0;orthogonalLoop=1;jettySize=auto;html=1;fontSize=12;" edge="1" source="wKU1zmOduOE47sI-MYQm-50" parent="1">
          <mxGeometry relative="1" as="geometry">
            <mxPoint x="640" y="580" as="targetPoint" />
            <Array as="points">
              <mxPoint x="760" y="420" />
              <mxPoint x="760" y="540" />
              <mxPoint x="640" y="540" />
            </Array>
          </mxGeometry>
        </mxCell>
        <mxCell id="wKU1zmOduOE47sI-MYQm-50" value="&amp;lt;exp lógica&amp;gt;" style="rhombus;whiteSpace=wrap;html=1;fontSize=12;" vertex="1" parent="1">
          <mxGeometry x="560" y="390" width="140" height="60" as="geometry" />
        </mxCell>
        <mxCell id="wKU1zmOduOE47sI-MYQm-51" value="" style="endArrow=classic;html=1;rounded=0;entryX=0.5;entryY=0;entryDx=0;entryDy=0;fontSize=12;" edge="1" target="wKU1zmOduOE47sI-MYQm-50" parent="1">
          <mxGeometry width="50" height="50" relative="1" as="geometry">
            <mxPoint x="630" y="350" as="sourcePoint" />
            <mxPoint x="650" y="300" as="targetPoint" />
          </mxGeometry>
        </mxCell>
        <mxCell id="wKU1zmOduOE47sI-MYQm-52" style="edgeStyle=orthogonalEdgeStyle;rounded=0;orthogonalLoop=1;jettySize=auto;html=1;entryX=0;entryY=0.5;entryDx=0;entryDy=0;fontSize=12;" edge="1" source="wKU1zmOduOE47sI-MYQm-53" target="wKU1zmOduOE47sI-MYQm-50" parent="1">
          <mxGeometry relative="1" as="geometry">
            <mxPoint x="520" y="390" as="targetPoint" />
            <Array as="points">
              <mxPoint x="520" y="505" />
              <mxPoint x="520" y="420" />
            </Array>
          </mxGeometry>
        </mxCell>
        <mxCell id="wKU1zmOduOE47sI-MYQm-53" value="&amp;lt;acciones&amp;gt;" style="rounded=0;whiteSpace=wrap;html=1;fontSize=12;" vertex="1" parent="1">
          <mxGeometry x="580" y="490" width="100" height="30" as="geometry" />
        </mxCell>
        <mxCell id="wKU1zmOduOE47sI-MYQm-54" value="" style="endArrow=classic;html=1;rounded=0;entryX=0.5;entryY=0;entryDx=0;entryDy=0;exitX=0.5;exitY=1;exitDx=0;exitDy=0;fontSize=12;" edge="1" source="wKU1zmOduOE47sI-MYQm-50" target="wKU1zmOduOE47sI-MYQm-53" parent="1">
          <mxGeometry width="50" height="50" relative="1" as="geometry">
            <mxPoint x="500" y="470" as="sourcePoint" />
            <mxPoint x="550" y="420" as="targetPoint" />
          </mxGeometry>
        </mxCell>
        <mxCell id="wKU1zmOduOE47sI-MYQm-55" value="False" style="text;html=1;align=center;verticalAlign=middle;resizable=0;points=[];autosize=1;strokeColor=none;fillColor=none;fontSize=12;" vertex="1" parent="1">
          <mxGeometry x="700" y="390" width="50" height="30" as="geometry" />
        </mxCell>
        <mxCell id="wKU1zmOduOE47sI-MYQm-56" value="Menor" style="text;html=1;align=center;verticalAlign=middle;resizable=0;points=[];autosize=1;strokeColor=none;fillColor=none;fontSize=12;" vertex="1" parent="1">
          <mxGeometry x="250" y="265" width="60" height="30" as="geometry" />
        </mxCell>
        <mxCell id="wKU1zmOduOE47sI-MYQm-57" value="Mayor o igual&lt;br&gt;" style="text;html=1;align=center;verticalAlign=middle;resizable=0;points=[];autosize=1;strokeColor=none;fillColor=none;fontSize=12;" vertex="1" parent="1">
          <mxGeometry x="490" y="265" width="100" height="30" as="geometry" />
        </mxCell>
        <mxCell id="wKU1zmOduOE47sI-MYQm-61" style="edgeStyle=orthogonalEdgeStyle;rounded=0;orthogonalLoop=1;jettySize=auto;html=1;exitX=0.5;exitY=1;exitDx=0;exitDy=0;entryX=0.5;entryY=0;entryDx=0;entryDy=0;fontSize=12;" edge="1" parent="1" source="wKU1zmOduOE47sI-MYQm-58" target="wKU1zmOduOE47sI-MYQm-60">
          <mxGeometry relative="1" as="geometry" />
        </mxCell>
        <mxCell id="wKU1zmOduOE47sI-MYQm-58" value="Leer (dinero_metido)" style="shape=parallelogram;perimeter=parallelogramPerimeter;whiteSpace=wrap;html=1;fixedSize=1;" vertex="1" parent="1">
          <mxGeometry x="50" y="380" width="180" height="30" as="geometry" />
        </mxCell>
        <mxCell id="wKU1zmOduOE47sI-MYQm-62" style="edgeStyle=orthogonalEdgeStyle;rounded=0;orthogonalLoop=1;jettySize=auto;html=1;exitX=1;exitY=0.5;exitDx=0;exitDy=0;fontSize=12;entryX=0;entryY=0.25;entryDx=0;entryDy=0;" edge="1" parent="1" source="wKU1zmOduOE47sI-MYQm-60" target="wKU1zmOduOE47sI-MYQm-46">
          <mxGeometry relative="1" as="geometry">
            <mxPoint x="440" y="330" as="targetPoint" />
            <Array as="points">
              <mxPoint x="400" y="475" />
              <mxPoint x="400" y="330" />
              <mxPoint x="564" y="330" />
            </Array>
          </mxGeometry>
        </mxCell>
        <mxCell id="wKU1zmOduOE47sI-MYQm-60" value="Si dinero_metido &amp;gt;= 2" style="rhombus;whiteSpace=wrap;html=1;fontSize=11;" vertex="1" parent="1">
          <mxGeometry x="80" y="450" width="150" height="50" as="geometry" />
        </mxCell>
      </root>
    </mxGraphModel>
  </diagram>
</mxfile>
